<svg xmlns="http://www.w3.org/2000/svg" enable-background="new 0 0 24 24" viewBox="0 0 24 24"><path fill="#303c42" d="M21.681,11h-5.971c0.15-0.317,0.259-0.616,0.315-0.86c0.866-0.601,0.999-2.86,0.999-2.887   c0-0.379-0.132-0.9-0.453-1.231c0.227-0.393,0.406-0.913,0.445-1.492l0.316-0.28C17.438,4.156,17.5,4.02,17.5,3.876   C17.5,2.012,15.488,0,12.238,0c-1.827,0-2.736,0.574-3.079,0.866C8.29,1.024,6.977,2.047,6.977,3.455L6.974,3.866   C6.966,4.809,6.976,5.468,7.066,5.92C6.663,6.237,6.5,6.832,6.5,7.253c0,0.026,0.133,2.286,0.999,2.887   c0.056,0.243,0.165,0.542,0.315,0.86H2.319C1.04,11,0,12.041,0,13.32c0,0.152,0.015,0.305,0.045,0.455l1.724,8.617   C1.955,23.324,2.78,24,3.729,24h16.541c0.949,0,1.774-0.676,1.961-1.608l1.724-8.618C23.985,13.625,24,13.472,24,13.32   C24,12.041,22.96,11,21.681,11z"/><path fill="#ccc" d="M8.452,9.786c0-0.249-0.182-0.455-0.419-0.494C7.772,9.017,7.5,7.646,7.5,7.253   c0-0.223,0.114-0.553,0.217-0.553c0.208,0,0.416-0.104,0.489-0.297c0.073-0.194,0.041-0.389-0.114-0.527   c-0.133-0.25-0.123-1.433-0.118-2.001l0.003-0.42c0-0.924,1.075-1.61,1.404-1.61c0.14,0,0.28-0.067,0.375-0.169   C9.762,1.668,10.402,1,12.238,1c2.621,0,4.087,1.484,4.247,2.665l-0.294,0.26c-0.106,0.095-0.168,0.231-0.168,0.374   c0,0.787-0.369,1.369-0.549,1.528c-0.155,0.138-0.209,0.357-0.136,0.551c0.074,0.194,0.26,0.323,0.468,0.323   c0.103,0,0.217,0.33,0.217,0.553c0,0.393-0.272,1.764-0.533,2.039c-0.237,0.039-0.419,0.245-0.419,0.494   c0,0.132-0.145,0.64-0.493,1.214H8.945C8.597,10.426,8.452,9.918,8.452,9.786z"/><path fill="#f2f2f2" d="M22.975,13.579l-1.724,8.617C21.157,22.662,20.745,23,20.271,23H3.729   c-0.475,0-0.887-0.338-0.98-0.804l-1.724-8.617C1.009,13.494,1,13.407,1,13.32C1,12.592,1.592,12,2.319,12h19.361   C22.408,12,23,12.592,23,13.32C23,13.407,22.991,13.494,22.975,13.579z"/><path fill="#fff" d="M7.979 7.733c0-.223.114-.553.217-.553.208 0 .416-.104.489-.297.073-.194.041-.389-.114-.527-.133-.25-.123-1.433-.118-2.001l.003-.42c0-.924 1.075-1.61 1.404-1.61.14 0 .28-.067.375-.169.006-.007.646-.675 2.482-.675 1.427 0 2.499.445 3.217 1.037C15.271 1.698 14.033 1 12.238 1c-1.836 0-2.477.668-2.482.675C9.661 1.777 9.521 1.844 9.381 1.844c-.329 0-1.404.687-1.404 1.61l-.003.42C7.969 4.444 7.959 5.627 8.092 5.876c.155.138.188.333.114.527C8.133 6.597 7.925 6.701 7.717 6.701 7.614 6.701 7.5 7.03 7.5 7.253c0 .393.272 1.764.533 2.039.155.025.28.126.352.259C8.17 9.068 7.979 8.061 7.979 7.733zM8.931 10.265c0-.249-.182-.455-.419-.494C8.483 9.74 8.454 9.692 8.425 9.637 8.44 9.684 8.452 9.733 8.452 9.786c0 .132.145.64.493 1.214h.227C9.008 10.642 8.931 10.358 8.931 10.265zM3.228 22.675l-1.724-8.617c-.017-.085-.025-.172-.025-.259 0-.728.592-1.32 1.319-1.32H22.16c.24 0 .452.082.646.194C22.578 12.278 22.168 12 21.681 12H2.319C1.592 12 1 12.592 1 13.32c0 .087.009.174.025.259l1.724 8.617c.064.32.284.57.566.702C3.281 22.826 3.244 22.755 3.228 22.675z" opacity=".2"/><path fill="#303c42" d="M14.55,18.717c-0.319-0.032-0.486-0.196-0.486-0.276c0-0.072,0.128-0.201,0.367-0.256   c0.172-0.04,0.31-0.167,0.363-0.334c0.055-0.167,0.016-0.351-0.101-0.483c-0.363-0.413-0.938-0.701-1.4-0.701   c-0.107,0-0.204,0.015-0.302,0.028c0.534-0.215,0.898-0.661,0.898-1.195c0-0.276-0.224-0.5-0.5-0.5   c-0.903,0-1.611,0.586-1.611,1.333c0,0.26,0.2,0.465,0.453,0.49c-0.189,0.019-0.368,0.016-0.591-0.038   c-0.229-0.056-0.489-0.119-0.784-0.119C10.099,16.667,9,17.396,9,18.539C9,19.666,10.079,21,10.99,21   c0.43,0,0.692-0.085,0.883-0.147c0.201-0.064,0.2-0.064,0.399,0C12.465,20.915,12.727,21,13.157,21   c0.748,0,1.488-0.822,1.806-1.596c0.06-0.146,0.047-0.312-0.034-0.447C14.848,18.822,14.707,18.733,14.55,18.717z"/><path fill="#f2f2f2" d="M13.157,20c-0.272,0-0.42-0.048-0.576-0.098c-0.142-0.046-0.302-0.098-0.508-0.098   s-0.366,0.052-0.508,0.098C11.409,19.952,11.262,20,10.99,20C10.749,20,10,19.224,10,18.539c0-0.563,0.642-0.873,0.854-0.873   c0.175,0,0.355,0.044,0.548,0.091c0.427,0.104,0.916,0.104,1.343,0c0.191-0.047,0.373-0.091,0.548-0.091   c0.02,0,0.046,0.003,0.077,0.011c-0.195,0.214-0.307,0.479-0.307,0.764c0,0.447,0.271,0.838,0.698,1.067   C13.525,19.821,13.26,20,13.157,20z"/><linearGradient id="a" x1="11.48" x2="18.851" y1="17.457" y2="24.829" gradientUnits="userSpaceOnUse"><stop offset="0" stop-opacity=".1"/><stop offset="1" stop-opacity="0"/></linearGradient><path fill="url(#a)" d="M13.762,15.175c0.076,0.088,0.127,0.199,0.127,0.325c0,0.533-0.364,0.98-0.898,1.195   c0.098-0.013,0.195-0.028,0.302-0.028c0.462,0,1.037,0.288,1.4,0.701c0.116,0.132,0.155,0.316,0.101,0.483   c-0.054,0.167-0.191,0.294-0.363,0.334c-0.239,0.055-0.367,0.185-0.367,0.256c0,0.08,0.167,0.244,0.486,0.276   c0.157,0.016,0.298,0.104,0.379,0.24c0.081,0.136,0.094,0.301,0.034,0.447C14.646,20.178,13.905,21,13.157,21   c-0.431,0-0.692-0.085-0.885-0.147c-0.199-0.064-0.198-0.064-0.399,0C11.683,20.915,11.42,21,10.99,21   c-0.3,0-0.616-0.154-0.908-0.388l-0.005,0.007L12.459,23h7.812c0.351,0,0.666-0.186,0.845-0.471L13.762,15.175z"/><linearGradient id="b" x1="1.833" x2="23.817" y1="8.875" y2="19.126" gradientUnits="userSpaceOnUse"><stop offset="0" stop-color="#fff" stop-opacity=".2"/><stop offset="1" stop-color="#fff" stop-opacity="0"/></linearGradient><path fill="url(#b)" d="M21.681,11h-5.971c0.15-0.317,0.259-0.616,0.315-0.86c0.866-0.601,0.999-2.86,0.999-2.887   c0-0.379-0.132-0.9-0.453-1.231c0.227-0.393,0.406-0.913,0.445-1.492l0.316-0.28C17.438,4.156,17.5,4.02,17.5,3.876   C17.5,2.012,15.488,0,12.238,0c-1.827,0-2.736,0.574-3.079,0.866C8.29,1.024,6.977,2.047,6.977,3.455L6.974,3.866   C6.966,4.809,6.976,5.468,7.066,5.92C6.663,6.237,6.5,6.832,6.5,7.253c0,0.026,0.133,2.286,0.999,2.887   c0.056,0.243,0.165,0.542,0.315,0.86H2.319C1.04,11,0,12.041,0,13.32c0,0.152,0.015,0.305,0.045,0.455l1.724,8.617   C1.955,23.324,2.78,24,3.729,24h16.541c0.949,0,1.774-0.676,1.961-1.608l1.724-8.618C23.985,13.625,24,13.472,24,13.32   C24,12.041,22.96,11,21.681,11z"/></svg>